<svg width="209" height="178" viewBox="0 0 209 178" fill="none" xmlns="http://www.w3.org/2000/svg">
<g clip-path="url(#clip0_240_2488)">
<path d="M183.747 171.378C186.032 175.825 191.026 177.812 191.026 177.812C191.026 177.812 192.315 172.589 190.03 168.142C187.745 163.695 182.751 161.708 182.751 161.708C182.751 161.708 181.462 166.931 183.747 171.378Z" fill="#F1F1F1"/>
<path d="M185.404 169.962C189.634 172.622 191.183 177.774 191.183 177.774C191.183 177.774 185.875 178.612 181.645 175.952C177.415 173.291 175.866 168.139 175.866 168.139C175.866 168.139 181.175 167.301 185.404 169.962Z" fill="#F1F1F1"/>
<path d="M125.97 174.733H123.003L121.593 163.28L125.97 163.28L125.97 174.733Z" fill="#FFB7B7"/>
<path d="M126.726 177.611L117.162 177.611V177.49C117.162 176.501 117.554 175.554 118.253 174.855C118.951 174.156 119.897 173.763 120.885 173.763H120.885L126.726 173.763L126.726 177.611Z" fill="#1A1C2B"/>
<path d="M144.357 174.733H141.391L139.98 163.28L144.357 163.28L144.357 174.733Z" fill="#FFB7B7"/>
<path d="M145.113 177.611L135.549 177.611V177.49C135.549 176.501 135.941 175.554 136.64 174.855C137.338 174.156 138.284 173.763 139.272 173.763H139.272L145.113 173.763L145.113 177.611Z" fill="#1A1C2B"/>
<path d="M135.744 110.219L129.908 98.4621L131.411 88.7101L124.395 86.7725L123.669 99.8516L132.768 112.23C132.702 112.694 132.773 113.167 132.97 113.591C133.168 114.016 133.484 114.374 133.881 114.622C134.277 114.87 134.737 114.998 135.205 114.99C135.672 114.981 136.128 114.837 136.515 114.575C136.903 114.314 137.206 113.945 137.389 113.513C137.571 113.082 137.625 112.608 137.543 112.146C137.462 111.685 137.248 111.258 136.929 110.916C136.61 110.574 136.198 110.332 135.744 110.219V110.219Z" fill="#FFB7B7"/>
<path d="M148.368 110.219L154.204 98.4621L152.701 88.7101L159.717 86.7725L160.443 99.8516L151.345 112.23C151.41 112.694 151.34 113.167 151.142 113.591C150.945 114.016 150.629 114.374 150.232 114.622C149.835 114.87 149.375 114.998 148.908 114.99C148.44 114.981 147.985 114.837 147.597 114.575C147.21 114.314 146.906 113.945 146.724 113.513C146.541 113.082 146.487 112.608 146.569 112.146C146.651 111.685 146.864 111.258 147.184 110.916C147.503 110.574 147.914 110.332 148.368 110.219V110.219Z" fill="#FFB7B7"/>
<path d="M144.473 70.0377C147.999 70.0377 150.856 67.1767 150.856 63.6475C150.856 60.1183 147.999 57.2573 144.473 57.2573C140.948 57.2573 138.09 60.1183 138.09 63.6475C138.09 67.1767 140.948 70.0377 144.473 70.0377Z" fill="#FFB9B9"/>
<path d="M138.139 63.6132C138.139 63.6132 137.446 62.5732 137.712 61.4532C137.871 60.8173 137.934 60.1611 137.899 59.5065C138.197 58.5363 138.571 57.5912 139.018 56.6799C139.577 55.6666 139.311 55.24 141.068 54.92C142.826 54.6 142.107 52.3067 146.742 54.7866C146.898 55.0052 147.116 55.1725 147.367 55.2674C147.618 55.3623 147.892 55.3806 148.154 55.3199C149.113 55.1333 149.459 56.4666 149.459 56.4666C149.459 56.4666 150.098 56.0933 150.338 56.6266C150.578 57.1599 152.287 56.3065 152.287 59.9065C152.287 63.5064 150.342 66.7221 150.342 66.7221C150.342 66.7221 148.976 71.0367 145.806 70.4234C142.636 69.8101 142.177 70.1812 140 66.0637C139.554 67.3508 138.87 62.4642 138.139 63.6132Z" fill="#2C231A"/>
<path d="M130.443 104.938L129.703 107.843C129.703 107.843 126.217 109.529 124.822 124.673L122.943 147.379L120.075 171.174L126.037 171.637L130.171 156.562L139.102 124.863L140.795 148.843L138.911 170.576L145.201 170.818L149.556 146.598C149.556 146.598 156.228 111.121 151.924 110.088L151.492 106.391L130.443 104.938Z" fill="#535A87"/>
<path d="M129.063 77.6322L139.332 71.967L148.047 72.4327L158.456 78.601L154.118 105.727C154.118 105.727 156.605 108.51 149.088 107.693C141.572 106.876 129.424 106.213 129.424 106.213C129.424 106.213 128.447 104.272 130.534 103.999C132.621 103.727 130.876 103.791 130.876 103.791C130.876 103.791 129.615 99.7368 130.876 98.9464L131.486 90.6209L129.063 77.6322Z" fill="#3F3D56"/>
<path d="M131.895 78.053L129.063 77.6323L123.064 88.3467L132.811 92.6491L131.895 78.053Z" fill="#3F3D56"/>
<path d="M155.121 79.9906L158.456 78.6011L161.774 93.6753L152.771 95.3823L155.121 79.9906Z" fill="#3F3D56"/>
<path d="M78.1088 178H208.733C208.804 178 208.872 177.972 208.922 177.922C208.972 177.871 209 177.803 209 177.733C209 177.662 208.972 177.594 208.922 177.543C208.872 177.493 208.804 177.465 208.733 177.465H78.1088C78.038 177.465 77.97 177.493 77.9199 177.543C77.8698 177.594 77.8417 177.662 77.8417 177.733C77.8417 177.803 77.8698 177.871 77.9199 177.922C77.97 177.972 78.038 178 78.1088 178Z" fill="#CBCBCB"/>
<path d="M64.1099 106.33H30.1851V123.445H64.1099V106.33Z" fill="white"/>
<path d="M60.1019 110.711H34.1934V111.59H60.1019V110.711Z" fill="#6C63FF"/>
<path d="M60.1019 114.448H34.1934V115.327H60.1019V114.448Z" fill="#6C63FF"/>
<path d="M60.1019 118.185H34.1934V119.064H60.1019V118.185Z" fill="#6C63FF"/>
<path d="M64.3771 123.713H29.918V106.062H64.3771V123.713ZM30.4522 123.178H63.8428V106.597H30.4522V123.178Z" fill="#3F3D56"/>
<path d="M39.7315 85.072C32.5492 85.0779 25.5079 83.0768 19.4001 79.2938L19.245 79.1975L19.3409 79.0422L39.6296 46.1697H78.4073V46.3525C78.4073 67.7026 61.0574 85.072 39.7315 85.072Z" fill="#6C63FF"/>
<path d="M14.8523 71.1143L14.7276 71.037C7.88227 66.7997 2.94743 60.0674 0.963089 52.2589C-1.02126 44.4504 0.0998883 36.1756 4.09024 29.1784L4.16301 29.0513L31.2496 44.5467L14.8523 71.1143Z" fill="#F1F1F1"/>
<path d="M78.4074 40.9833H39.5042L47.8907 2.94678L48.0688 2.98596C56.6706 4.88929 64.3659 9.67452 69.8825 16.5504C75.399 23.4264 78.4064 31.9812 78.4074 40.8005V40.9833Z" fill="#6C63FF"/>
<path d="M33.3077 34.9928L6.94849 19.9134L7.01934 19.7896C10.215 14.201 15.1097 9.77996 20.9903 7.17071C26.8709 4.56146 33.4302 3.90033 39.7123 5.28363L39.8515 5.31426L33.3077 34.9928Z" fill="#F1F1F1"/>
<path d="M131.961 0.267578H98.0359V17.3828H131.961V0.267578Z" fill="white"/>
<path d="M127.953 4.64868H102.044V5.52793H127.953V4.64868Z" fill="#6C63FF"/>
<path d="M127.953 8.3855H102.044V9.26474H127.953V8.3855Z" fill="#6C63FF"/>
<path d="M127.953 12.1223H102.044V13.0016H127.953V12.1223Z" fill="#6C63FF"/>
<path d="M132.228 17.6501H97.7688V0H132.228V17.6501ZM98.303 17.1152H131.694V0.534851H98.303V17.1152Z" fill="#3F3D56"/>
<path d="M47.4873 62.0344H46.953V106.063H47.4873V62.0344Z" fill="#3F3D56"/>
<path d="M97.904 8.84493L57.7976 27.0056L58.0178 27.4929L98.1241 9.33225L97.904 8.84493Z" fill="#3F3D56"/>
</g>
<defs>
<clipPath id="clip0_240_2488">
<rect width="209" height="178" fill="white"/>
</clipPath>
</defs>
</svg>
