<svg width="32" height="32" viewBox="0 0 32 32" fill="none" xmlns="http://www.w3.org/2000/svg">
<path d="M19.7483 3.9552C19.2409 3.9552 17.7324 3.95524 15.9792 6.08399C16.0018 6.11088 16.0243 6.13777 16.0478 6.16553C16.498 5.63898 17.0627 5.10029 17.6691 4.7082C18.2294 4.34733 18.8791 4.10616 19.417 4.04717C19.8091 4.0038 21.106 4.02027 22.5824 4.02027C22.5902 4.02027 22.5945 4.02372 22.5979 4.02806L22.5598 3.96389C22.5572 3.95781 22.552 3.9552 22.5459 3.9552H19.7483Z" fill="url(#paint0_radial_238_2376)"/>
<path d="M9.46632 3.9552C9.46111 3.9552 9.45507 3.95697 9.4516 3.96304L3.96055 13.4739L2.23865 16.4562L2.03915 16.8023L2.0131 16.8466C2.01136 16.8501 2.01138 16.8561 2.01485 16.863L7.24562 25.9229V25.8855C7.13198 25.6773 7.05047 25.5168 7.0071 25.4162C6.78849 24.9209 6.66442 24.2356 6.69652 23.5694C6.785 21.8154 7.71753 20.0848 8.18683 19.2729C9.28677 17.3679 11.4129 13.6838 11.4129 13.6838C11.4129 13.6838 13.54 9.99968 14.6399 8.09386C15.1083 7.28279 16.1415 5.60944 17.617 4.6561C18.1766 4.29437 18.8341 4.0602 19.3702 4.00121C19.7631 3.95697 21.0678 3.9552 22.5459 3.9552H9.46632Z" fill="url(#paint1_radial_238_2376)"/>
<path d="M2.05817 16.9351C2.14058 17.0791 2.2221 17.2214 2.30278 17.3602L2.05817 16.9351ZM28.3701 19.5895C28.05 20.025 27.519 20.4769 26.9257 20.7805C25.3617 21.5812 23.3978 21.6393 22.4609 21.6393H16.0061H9.55215C8.61529 21.6393 6.64878 21.5812 5.08735 20.7805C4.49314 20.4769 3.96224 20.025 3.64214 19.5895C3.43916 19.3128 2.91867 18.4263 2.30278 17.3602L3.61525 19.6346L8.5546 28.1904C8.55721 28.1947 8.56327 28.1982 8.56848 28.1982H23.4446C23.4489 28.1982 23.455 28.1939 23.4576 28.1896L29.9393 16.9637C29.2245 18.2016 28.5982 19.2799 28.3701 19.5895Z" fill="url(#paint2_radial_238_2376)"/>
<path d="M19.3701 4.00127C18.834 4.06026 18.1765 4.29442 17.617 4.65616C16.9993 5.05519 16.4597 5.58001 16.006 6.11523C16.6367 6.85865 17.0999 7.62115 17.3723 8.09392C18.4722 9.99974 20.6001 13.6839 20.6001 13.6839C20.6001 13.6839 22.7263 17.368 23.8271 19.2729C24.2947 20.0849 25.2281 21.8155 25.3148 23.5695C25.3478 24.2357 25.222 24.921 25.006 25.4163C24.8542 25.7624 24.2513 26.8146 23.5512 28.0273L29.9991 16.8605C29.9991 16.8596 30 16.8588 30 16.857V16.8501C30 16.8483 29.9991 16.8466 29.9982 16.8457L22.5598 3.96394C22.5572 3.95787 22.5519 3.95526 22.5458 3.95526C21.0677 3.95526 19.7631 3.95703 19.3701 4.00127Z" fill="url(#paint3_radial_238_2376)"/>
<defs>
<radialGradient id="paint0_radial_238_2376" cx="0" cy="0" r="1" gradientUnits="userSpaceOnUse" gradientTransform="translate(25.0059 25.4158) scale(21.6012 21.6016)">
<stop stop-color="#FEDF33"/>
<stop offset="0.440002" stop-color="#FBB809"/>
<stop offset="0.899994" stop-color="#EE960D"/>
<stop offset="1" stop-color="#E17A10"/>
</radialGradient>
<radialGradient id="paint1_radial_238_2376" cx="0" cy="0" r="1" gradientUnits="userSpaceOnUse" gradientTransform="translate(19.3652 3.95469) scale(21.6172 21.6172)">
<stop stop-color="#FEDF33"/>
<stop offset="0.440002" stop-color="#FBB809"/>
<stop offset="0.899994" stop-color="#EE960D"/>
<stop offset="1" stop-color="#E17A10"/>
</radialGradient>
<radialGradient id="paint2_radial_238_2376" cx="0" cy="0" r="1" gradientUnits="userSpaceOnUse" gradientTransform="translate(3.61493 19.6345) scale(21.6086 21.6086)">
<stop stop-color="#FEDF33"/>
<stop offset="0.440002" stop-color="#FBB809"/>
<stop offset="0.899994" stop-color="#EE960D"/>
<stop offset="1" stop-color="#E17A10"/>
</radialGradient>
<radialGradient id="paint3_radial_238_2376" cx="0" cy="0" r="1" gradientUnits="userSpaceOnUse" gradientTransform="translate(24.9915 25.4855) scale(21.6691 21.6691)">
<stop stop-color="#FEDF33"/>
<stop offset="0.440002" stop-color="#FBB809"/>
<stop offset="0.899994" stop-color="#EE960D"/>
<stop offset="1" stop-color="#D87301"/>
</radialGradient>
</defs>
</svg>
