<svg width="90" height="24" viewBox="0 0 90 24" fill="none" xmlns="http://www.w3.org/2000/svg">
<path d="M0 11.945C0 16.8462 3.57867 20.2934 8.28006 20.2934C11.9055 20.2934 14.8527 18.3704 15.952 14.9936H12.1862C11.4143 16.5882 10.0109 17.3621 8.25667 17.3621C5.40309 17.3621 3.36816 15.2515 3.36816 11.945C3.36816 8.61509 5.40309 6.528 8.25667 6.528C10.0109 6.528 11.4143 7.30186 12.1862 8.87304H15.952C14.8527 5.51964 11.9055 3.57325 8.28006 3.57325C3.57867 3.57325 0 7.04391 0 11.945Z" fill="white"/>
<path d="M29.6019 20.1527H33.0636L27.1927 3.76086H23.3801L17.5092 20.1527H20.9476L22.0235 17.0338H28.5259L29.6019 20.1527ZM27.6371 14.4073H22.9123L25.2747 7.55982L27.6371 14.4073Z" fill="white"/>
<path d="M46.4385 15.4157C46.4385 9.6469 38.0649 11.476 38.0649 8.19298C38.0649 6.85631 39.0239 6.22315 40.3103 6.27005C41.7137 6.2935 42.5791 7.13771 42.6493 8.21643H46.2514C46.0409 5.26168 43.7486 3.5498 40.4039 3.5498C37.0357 3.5498 34.6499 5.33203 34.6499 8.28678C34.6265 14.2197 43.0469 12.0857 43.0469 15.6268C43.0469 16.7993 42.1347 17.62 40.591 17.62C39.0706 17.62 38.2052 16.7524 38.1116 15.4391H34.6031C34.6499 18.5346 37.2696 20.3168 40.6612 20.3168C44.3802 20.3168 46.4385 17.9952 46.4385 15.4157Z" fill="white"/>
<path d="M59.3118 20.1527H62.5864V3.78431H59.3118V10.5146H52.3181V3.78431H49.0435V20.1527H52.3181V13.1879H59.3118V20.1527Z" fill="white"/>
<path d="M75.0485 3.76086H65.5755V20.1527H75.0485V17.4793H68.8501V13.141H74.3468V10.538H68.8501V6.4342H75.0485V3.76086Z" fill="white"/>
<path d="M86.4447 8.87304C86.4447 10.3504 85.6261 11.3119 83.8016 11.3119H81.065V6.50455H83.8016C85.6261 6.50455 86.4447 7.41912 86.4447 8.87304ZM77.7904 3.78431V20.1527H81.065V13.7742H82.6088L86.2108 20.1527H90L86.0939 13.5162C88.7135 12.8127 89.8129 10.796 89.8129 8.80269C89.8129 6.059 87.8481 3.78431 83.9186 3.78431H77.7904Z" fill="white"/>
<path fill-rule="evenodd" clip-rule="evenodd" d="M6.24857 0H9.53779V3.65428C12.5777 4.05406 14.9829 5.91682 15.952 8.87304H12.1862C11.4143 7.30187 10.0109 6.528 8.25667 6.528C5.40309 6.528 3.36816 8.61509 3.36816 11.945C3.36816 15.2515 5.40309 17.3621 8.25667 17.3621C10.0109 17.3621 11.4143 16.5882 12.1862 14.9936H15.952C14.9829 17.9705 12.5777 19.8175 9.53779 20.2132V24H6.24857V20.0674C2.58562 19.2265 0 16.111 0 11.945C0 7.77906 2.58562 4.6466 6.24857 3.80063V0Z" fill="white"/>
</svg>
