<svg width="25" height="32" viewBox="0 0 25 32" fill="none" xmlns="http://www.w3.org/2000/svg">
<path d="M12.5 1.14111C11.9779 1.14111 11.4702 1.2506 11.0097 1.45121C10.5472 1.64761 10.1752 1.88535 9.82776 2.22646C9.48653 2.56964 9.20492 3.00791 9.00553 3.46685C8.81025 3.92993 8.69719 4.38888 8.69719 4.91398C8.69719 5.43908 8.81033 5.94971 9.00553 6.41279C9.20492 6.86967 9.48653 7.26039 9.82776 7.6015C10.1752 7.94674 10.5472 8.2279 11.0097 8.42843C11.4702 8.62483 11.9779 8.73853 12.5 8.73853C13.0262 8.73853 13.5299 8.62474 13.9903 8.42843C14.4466 8.2279 14.8331 7.94674 15.1723 7.6015C15.5135 7.26039 15.7951 6.86967 15.9945 6.41279C16.1898 5.94971 16.3028 5.43908 16.3028 4.91398C16.3028 4.38888 16.1897 3.92993 15.9945 3.46685C15.7951 3.00791 15.5135 2.56964 15.1723 2.22646C14.8331 1.88535 14.4466 1.64761 13.9903 1.45121C13.5299 1.25068 13.0262 1.14111 12.5 1.14111ZM4.89437 11.0643C4.37226 11.0643 3.91592 11.1222 3.45547 11.3227C2.99502 11.5211 2.5654 11.8064 2.22212 12.1496C1.8809 12.4928 1.64656 12.9269 1.45128 13.39C1.25189 13.849 1.14294 14.312 1.14294 14.8371V23.2098H18.564V25.5355H1.14294V25.949V27.0343C1.14294 27.5615 1.25395 28.0701 1.45128 28.5331C1.64656 28.9962 1.88295 29.3766 2.22212 29.7219C2.5654 30.063 2.99502 30.3503 3.45547 30.5488C3.91592 30.7493 4.37226 30.8589 4.89437 30.8589H20.1056C20.6278 30.8589 21.0841 30.7494 21.5445 30.5488C22.0071 30.3503 22.4387 30.063 22.7779 29.7219C23.1212 29.3766 23.4007 28.9962 23.6001 28.5331C23.7995 28.0701 23.8571 27.5615 23.8571 27.0343V25.949V18.6617H6.43606V16.3876H23.8571V14.8371C23.8571 14.312 23.8017 13.849 23.6001 13.39C23.4028 12.9269 23.1212 12.4928 22.7779 12.1496C22.4387 11.8064 22.0071 11.5211 21.5445 11.3227C21.0841 11.1222 20.6278 11.0643 20.1056 11.0643H4.89437Z" fill="white"/>
</svg>
