<svg width="47" height="32" viewBox="0 0 47 32" fill="none" xmlns="http://www.w3.org/2000/svg">
<g clip-path="url(#clip0_237_2371)">
<path d="M0 0V32H46.5949V0H0V0Z" fill="white"/>
<path d="M28.3735 25.1489C27.9137 27.5624 27.524 29.6119 27.3729 30.4081H45.2568V25.1489H28.3735ZM0.964722 25.1968V30.4559H18.7218L17.5368 25.1968H0.964722Z" fill="#E05F0C"/>
<path d="M9.68922 13.1383L8.39681 7.69782H19.4239L22.995 23.3151H23.1474L25.3972 13.3109C26.5309 8.76853 26.9591 7.69782 33.3481 7.69782H37.9434C37.9434 7.69782 37.015 11.8849 35.8599 16.4285C35.4203 18.1618 31.5834 17.9565 31.7748 16.3378C31.795 16.169 31.9764 14.9509 32.12 14.0843C32.3291 12.8372 30.8742 12.681 30.6122 13.9155C30.4257 14.7998 29.583 19.1884 28.7957 23.3151H45.257V0.890625H0.963562V23.3151H17.0381L14.748 13.1459L9.68922 13.1383V13.1383Z" fill="#0A438A"/>
</g>
<defs>
<clipPath id="clip0_237_2371">
<rect width="46.5949" height="32" fill="white"/>
</clipPath>
</defs>
</svg>
